<mxfile host="app.diagrams.net" agent="Mozilla/5.0 (Windows NT 10.0; Win64; x64) AppleWebKit/537.36 (KHTML, like Gecko) Chrome/128.0.0.0 Safari/537.36 Edg/128.0.0.0" version="24.7.11">
  <diagram name="Page-1" id="NPpZxTKyHDkGEbGbewCJ">
    <mxGraphModel dx="1002" dy="1633" grid="1" gridSize="10" guides="1" tooltips="1" connect="1" arrows="1" fold="1" page="1" pageScale="1" pageWidth="850" pageHeight="1100" math="0" shadow="0">
      <root>
        <mxCell id="0" />
        <mxCell id="1" parent="0" />
        <mxCell id="4sC6nosAnQVyJl_gHEht-1" style="edgeStyle=orthogonalEdgeStyle;rounded=0;orthogonalLoop=1;jettySize=auto;html=1;exitX=0.5;exitY=0;exitDx=0;exitDy=0;exitPerimeter=0;endArrow=block;endFill=0;" parent="1" source="4sC6nosAnQVyJl_gHEht-3" target="4sC6nosAnQVyJl_gHEht-5" edge="1">
          <mxGeometry relative="1" as="geometry" />
        </mxCell>
        <mxCell id="4sC6nosAnQVyJl_gHEht-2" value="Disable/Enable" style="edgeLabel;html=1;align=center;verticalAlign=middle;resizable=0;points=[];" parent="4sC6nosAnQVyJl_gHEht-1" vertex="1" connectable="0">
          <mxGeometry x="0.1538" y="-1" relative="1" as="geometry">
            <mxPoint as="offset" />
          </mxGeometry>
        </mxCell>
        <mxCell id="4sC6nosAnQVyJl_gHEht-3" value="Lambda" style="sketch=0;points=[[0,0,0],[0.25,0,0],[0.5,0,0],[0.75,0,0],[1,0,0],[0,1,0],[0.25,1,0],[0.5,1,0],[0.75,1,0],[1,1,0],[0,0.25,0],[0,0.5,0],[0,0.75,0],[1,0.25,0],[1,0.5,0],[1,0.75,0]];outlineConnect=0;fontColor=#232F3E;fillColor=#ED7100;strokeColor=#ffffff;dashed=0;verticalLabelPosition=bottom;verticalAlign=top;align=center;html=1;fontSize=12;fontStyle=0;aspect=fixed;shape=mxgraph.aws4.resourceIcon;resIcon=mxgraph.aws4.lambda;container=0;" parent="1" vertex="1">
          <mxGeometry x="520" y="-51.509999999999984" width="50" height="50" as="geometry" />
        </mxCell>
        <mxCell id="4sC6nosAnQVyJl_gHEht-4" value="AV Process Alarm" style="sketch=0;outlineConnect=0;fontColor=#232F3E;gradientColor=none;fillColor=#E7157B;strokeColor=none;dashed=0;verticalLabelPosition=bottom;verticalAlign=top;align=center;html=1;fontSize=12;fontStyle=0;aspect=fixed;pointerEvents=1;shape=mxgraph.aws4.event_event_based;container=0;" parent="1" vertex="1">
          <mxGeometry x="350" y="-1.509999999999991" width="50" height="50" as="geometry" />
        </mxCell>
        <mxCell id="4sC6nosAnQVyJl_gHEht-5" value="CPU Usage Alarm" style="sketch=0;outlineConnect=0;fontColor=#232F3E;gradientColor=none;fillColor=#E7157B;strokeColor=none;dashed=0;verticalLabelPosition=bottom;verticalAlign=top;align=center;html=1;fontSize=12;fontStyle=0;aspect=fixed;pointerEvents=1;shape=mxgraph.aws4.event_event_based;container=0;" parent="1" vertex="1">
          <mxGeometry x="350" y="-101.51" width="50" height="50" as="geometry" />
        </mxCell>
        <mxCell id="4sC6nosAnQVyJl_gHEht-6" value="SNS Topic" style="sketch=0;points=[[0,0,0],[0.25,0,0],[0.5,0,0],[0.75,0,0],[1,0,0],[0,1,0],[0.25,1,0],[0.5,1,0],[0.75,1,0],[1,1,0],[0,0.25,0],[0,0.5,0],[0,0.75,0],[1,0.25,0],[1,0.5,0],[1,0.75,0]];outlineConnect=0;fontColor=#232F3E;fillColor=#E7157B;strokeColor=#ffffff;dashed=0;verticalLabelPosition=bottom;verticalAlign=top;align=center;html=1;fontSize=12;fontStyle=0;aspect=fixed;shape=mxgraph.aws4.resourceIcon;resIcon=mxgraph.aws4.sns;container=0;" parent="1" vertex="1">
          <mxGeometry x="640" y="-51.50999999999999" width="50" height="50" as="geometry" />
        </mxCell>
        <mxCell id="4sC6nosAnQVyJl_gHEht-7" value="" style="group" parent="1" vertex="1" connectable="0">
          <mxGeometry x="170" y="-119.99999999999999" width="58.55000000000001" height="120" as="geometry" />
        </mxCell>
        <mxCell id="4sC6nosAnQVyJl_gHEht-8" value="CW Agent on EC2" style="sketch=0;outlineConnect=0;fontColor=#232F3E;gradientColor=none;fillColor=#ED7100;strokeColor=none;dashed=0;verticalLabelPosition=bottom;verticalAlign=top;align=center;html=1;fontSize=12;fontStyle=0;aspect=fixed;pointerEvents=1;shape=mxgraph.aws4.instance_with_cloudwatch2;container=0;" parent="4sC6nosAnQVyJl_gHEht-7" vertex="1">
          <mxGeometry x="4.280000000000001" y="70" width="50" height="50" as="geometry" />
        </mxCell>
        <mxCell id="4sC6nosAnQVyJl_gHEht-9" style="edgeStyle=orthogonalEdgeStyle;rounded=0;orthogonalLoop=1;jettySize=auto;html=1;" parent="4sC6nosAnQVyJl_gHEht-7" source="4sC6nosAnQVyJl_gHEht-10" target="4sC6nosAnQVyJl_gHEht-8" edge="1">
          <mxGeometry relative="1" as="geometry" />
        </mxCell>
        <mxCell id="4sC6nosAnQVyJl_gHEht-10" value="IAM Role" style="sketch=0;outlineConnect=0;fontColor=#232F3E;gradientColor=none;fillColor=#DD344C;strokeColor=none;dashed=0;verticalLabelPosition=bottom;verticalAlign=top;align=center;html=1;fontSize=12;fontStyle=0;aspect=fixed;pointerEvents=1;shape=mxgraph.aws4.role;container=0;" parent="4sC6nosAnQVyJl_gHEht-7" vertex="1">
          <mxGeometry width="58.55" height="33.03" as="geometry" />
        </mxCell>
        <mxCell id="4sC6nosAnQVyJl_gHEht-11" style="edgeStyle=orthogonalEdgeStyle;rounded=0;orthogonalLoop=1;jettySize=auto;html=1;entryX=0;entryY=0.5;entryDx=0;entryDy=0;entryPerimeter=0;" parent="1" source="4sC6nosAnQVyJl_gHEht-3" target="4sC6nosAnQVyJl_gHEht-6" edge="1">
          <mxGeometry relative="1" as="geometry" />
        </mxCell>
        <mxCell id="4sC6nosAnQVyJl_gHEht-12" style="edgeStyle=orthogonalEdgeStyle;rounded=0;orthogonalLoop=1;jettySize=auto;html=1;" parent="1" source="4sC6nosAnQVyJl_gHEht-8" target="4sC6nosAnQVyJl_gHEht-5" edge="1">
          <mxGeometry relative="1" as="geometry">
            <Array as="points">
              <mxPoint x="290" y="-25" />
              <mxPoint x="290" y="-77" />
            </Array>
          </mxGeometry>
        </mxCell>
        <mxCell id="4sC6nosAnQVyJl_gHEht-13" style="edgeStyle=orthogonalEdgeStyle;rounded=0;orthogonalLoop=1;jettySize=auto;html=1;endArrow=block;endFill=0;" parent="1" source="4sC6nosAnQVyJl_gHEht-8" target="4sC6nosAnQVyJl_gHEht-4" edge="1">
          <mxGeometry relative="1" as="geometry">
            <Array as="points">
              <mxPoint x="199" y="23" />
            </Array>
          </mxGeometry>
        </mxCell>
        <mxCell id="4sC6nosAnQVyJl_gHEht-14" style="edgeStyle=orthogonalEdgeStyle;rounded=0;orthogonalLoop=1;jettySize=auto;html=1;entryX=0.5;entryY=1;entryDx=0;entryDy=0;entryPerimeter=0;endArrow=block;endFill=0;" parent="1" source="4sC6nosAnQVyJl_gHEht-4" target="4sC6nosAnQVyJl_gHEht-3" edge="1">
          <mxGeometry relative="1" as="geometry" />
        </mxCell>
        <mxCell id="4sC6nosAnQVyJl_gHEht-15" value="triggers" style="edgeLabel;html=1;align=center;verticalAlign=middle;resizable=0;points=[];" parent="4sC6nosAnQVyJl_gHEht-14" vertex="1" connectable="0">
          <mxGeometry x="-0.17" y="-1" relative="1" as="geometry">
            <mxPoint as="offset" />
          </mxGeometry>
        </mxCell>
        <mxCell id="4sC6nosAnQVyJl_gHEht-16" style="edgeStyle=orthogonalEdgeStyle;rounded=0;orthogonalLoop=1;jettySize=auto;html=1;entryX=0;entryY=0.5;entryDx=0;entryDy=0;entryPerimeter=0;" parent="1" source="4sC6nosAnQVyJl_gHEht-5" target="4sC6nosAnQVyJl_gHEht-3" edge="1">
          <mxGeometry relative="1" as="geometry">
            <Array as="points">
              <mxPoint x="375" y="-27" />
              <mxPoint x="460" y="-27" />
            </Array>
          </mxGeometry>
        </mxCell>
        <mxCell id="4sC6nosAnQVyJl_gHEht-17" value="Solution 1" style="points=[[0,0],[0.25,0],[0.5,0],[0.75,0],[1,0],[1,0.25],[1,0.5],[1,0.75],[1,1],[0.75,1],[0.5,1],[0.25,1],[0,1],[0,0.75],[0,0.5],[0,0.25]];outlineConnect=0;gradientColor=none;html=1;whiteSpace=wrap;fontSize=12;fontStyle=0;container=1;pointerEvents=0;collapsible=0;recursiveResize=0;shape=mxgraph.aws4.group;grIcon=mxgraph.aws4.group_aws_cloud_alt;strokeColor=#232F3E;fillColor=none;verticalAlign=top;align=left;spacingLeft=30;fontColor=#232F3E;dashed=0;" parent="1" vertex="1">
          <mxGeometry x="134.28" y="-160" width="585.72" height="240" as="geometry" />
        </mxCell>
        <mxCell id="0aKZVHoUoIrLt1A9KMXa-32" value="Solution 2" style="points=[[0,0],[0.25,0],[0.5,0],[0.75,0],[1,0],[1,0.25],[1,0.5],[1,0.75],[1,1],[0.75,1],[0.5,1],[0.25,1],[0,1],[0,0.75],[0,0.5],[0,0.25]];outlineConnect=0;gradientColor=none;html=1;whiteSpace=wrap;fontSize=12;fontStyle=0;container=1;pointerEvents=0;collapsible=0;recursiveResize=0;shape=mxgraph.aws4.group;grIcon=mxgraph.aws4.group_aws_cloud_alt;strokeColor=#232F3E;fillColor=none;verticalAlign=top;align=left;spacingLeft=30;fontColor=#232F3E;dashed=0;" vertex="1" parent="1">
          <mxGeometry x="134.28" y="120" width="585.72" height="280" as="geometry" />
        </mxCell>
        <mxCell id="0aKZVHoUoIrLt1A9KMXa-34" value="" style="group" vertex="1" connectable="0" parent="0aKZVHoUoIrLt1A9KMXa-32">
          <mxGeometry x="75.72" y="25" width="464.28" height="230" as="geometry" />
        </mxCell>
        <mxCell id="0aKZVHoUoIrLt1A9KMXa-24" style="edgeStyle=orthogonalEdgeStyle;rounded=0;orthogonalLoop=1;jettySize=auto;html=1;exitX=1;exitY=0.5;exitDx=0;exitDy=0;exitPerimeter=0;" edge="1" parent="0aKZVHoUoIrLt1A9KMXa-34" source="0aKZVHoUoIrLt1A9KMXa-20" target="4sC6nosAnQVyJl_gHEht-22">
          <mxGeometry relative="1" as="geometry" />
        </mxCell>
        <mxCell id="0aKZVHoUoIrLt1A9KMXa-20" value="Lambda" style="sketch=0;points=[[0,0,0],[0.25,0,0],[0.5,0,0],[0.75,0,0],[1,0,0],[0,1,0],[0.25,1,0],[0.5,1,0],[0.75,1,0],[1,1,0],[0,0.25,0],[0,0.5,0],[0,0.75,0],[1,0.25,0],[1,0.5,0],[1,0.75,0]];outlineConnect=0;fontColor=#232F3E;fillColor=#ED7100;strokeColor=#ffffff;dashed=0;verticalLabelPosition=bottom;verticalAlign=top;align=center;html=1;fontSize=12;fontStyle=0;aspect=fixed;shape=mxgraph.aws4.resourceIcon;resIcon=mxgraph.aws4.lambda;" vertex="1" parent="0aKZVHoUoIrLt1A9KMXa-34">
          <mxGeometry x="220" y="180" width="50" height="50" as="geometry" />
        </mxCell>
        <mxCell id="0aKZVHoUoIrLt1A9KMXa-27" style="edgeStyle=orthogonalEdgeStyle;rounded=0;orthogonalLoop=1;jettySize=auto;html=1;exitX=1;exitY=0.5;exitDx=0;exitDy=0;exitPerimeter=0;" edge="1" parent="0aKZVHoUoIrLt1A9KMXa-34" source="0aKZVHoUoIrLt1A9KMXa-23" target="0aKZVHoUoIrLt1A9KMXa-20">
          <mxGeometry relative="1" as="geometry" />
        </mxCell>
        <mxCell id="0aKZVHoUoIrLt1A9KMXa-28" value="Trigger" style="edgeLabel;html=1;align=center;verticalAlign=middle;resizable=0;points=[];" vertex="1" connectable="0" parent="0aKZVHoUoIrLt1A9KMXa-27">
          <mxGeometry x="0.0189" y="-2" relative="1" as="geometry">
            <mxPoint as="offset" />
          </mxGeometry>
        </mxCell>
        <mxCell id="0aKZVHoUoIrLt1A9KMXa-23" value="EventBridge Scheduler" style="sketch=0;points=[[0,0,0],[0.25,0,0],[0.5,0,0],[0.75,0,0],[1,0,0],[0,1,0],[0.25,1,0],[0.5,1,0],[0.75,1,0],[1,1,0],[0,0.25,0],[0,0.5,0],[0,0.75,0],[1,0.25,0],[1,0.5,0],[1,0.75,0]];outlineConnect=0;fontColor=#232F3E;fillColor=#E7157B;strokeColor=#ffffff;dashed=0;verticalLabelPosition=bottom;verticalAlign=top;align=center;html=1;fontSize=12;fontStyle=0;aspect=fixed;shape=mxgraph.aws4.resourceIcon;resIcon=mxgraph.aws4.eventbridge;" vertex="1" parent="0aKZVHoUoIrLt1A9KMXa-34">
          <mxGeometry x="8.550000000000011" y="180" width="50" height="50" as="geometry" />
        </mxCell>
        <mxCell id="4sC6nosAnQVyJl_gHEht-21" value="CPU Usage Alarm" style="sketch=0;outlineConnect=0;fontColor=#232F3E;gradientColor=none;fillColor=#E7157B;strokeColor=none;dashed=0;verticalLabelPosition=bottom;verticalAlign=top;align=center;html=1;fontSize=12;fontStyle=0;aspect=fixed;pointerEvents=1;shape=mxgraph.aws4.event_event_based;container=0;" parent="0aKZVHoUoIrLt1A9KMXa-34" vertex="1">
          <mxGeometry x="220" y="60" width="50" height="50" as="geometry" />
        </mxCell>
        <mxCell id="4sC6nosAnQVyJl_gHEht-22" value="SNS Topic" style="sketch=0;points=[[0,0,0],[0.25,0,0],[0.5,0,0],[0.75,0,0],[1,0,0],[0,1,0],[0.25,1,0],[0.5,1,0],[0.75,1,0],[1,1,0],[0,0.25,0],[0,0.5,0],[0,0.75,0],[1,0.25,0],[1,0.5,0],[1,0.75,0]];outlineConnect=0;fontColor=#232F3E;fillColor=#E7157B;strokeColor=#ffffff;dashed=0;verticalLabelPosition=bottom;verticalAlign=top;align=center;html=1;fontSize=12;fontStyle=0;aspect=fixed;shape=mxgraph.aws4.resourceIcon;resIcon=mxgraph.aws4.sns;container=0;" parent="0aKZVHoUoIrLt1A9KMXa-34" vertex="1">
          <mxGeometry x="414.28" y="60" width="50" height="50" as="geometry" />
        </mxCell>
        <mxCell id="4sC6nosAnQVyJl_gHEht-25" value="EC2" style="sketch=0;points=[[0,0,0],[0.25,0,0],[0.5,0,0],[0.75,0,0],[1,0,0],[0,1,0],[0.25,1,0],[0.5,1,0],[0.75,1,0],[1,1,0],[0,0.25,0],[0,0.5,0],[0,0.75,0],[1,0.25,0],[1,0.5,0],[1,0.75,0]];outlineConnect=0;fontColor=#232F3E;fillColor=#ED7100;strokeColor=#ffffff;dashed=0;verticalLabelPosition=bottom;verticalAlign=top;align=center;html=1;fontSize=12;fontStyle=0;aspect=fixed;shape=mxgraph.aws4.resourceIcon;resIcon=mxgraph.aws4.ec2;container=0;" parent="0aKZVHoUoIrLt1A9KMXa-34" vertex="1">
          <mxGeometry x="8.549999999999955" y="60" width="50" height="50" as="geometry" />
        </mxCell>
        <mxCell id="4sC6nosAnQVyJl_gHEht-26" value="IAM Role" style="sketch=0;outlineConnect=0;fontColor=#232F3E;gradientColor=none;fillColor=#DD344C;strokeColor=none;dashed=0;verticalLabelPosition=bottom;verticalAlign=top;align=center;html=1;fontSize=12;fontStyle=0;aspect=fixed;pointerEvents=1;shape=mxgraph.aws4.role;container=0;" parent="0aKZVHoUoIrLt1A9KMXa-34" vertex="1">
          <mxGeometry width="58.55" height="33.03" as="geometry" />
        </mxCell>
        <mxCell id="0aKZVHoUoIrLt1A9KMXa-4" style="edgeStyle=orthogonalEdgeStyle;rounded=0;orthogonalLoop=1;jettySize=auto;html=1;entryX=0;entryY=0.5;entryDx=0;entryDy=0;entryPerimeter=0;" edge="1" parent="0aKZVHoUoIrLt1A9KMXa-34" source="4sC6nosAnQVyJl_gHEht-21" target="4sC6nosAnQVyJl_gHEht-22">
          <mxGeometry relative="1" as="geometry" />
        </mxCell>
        <mxCell id="0aKZVHoUoIrLt1A9KMXa-7" style="edgeStyle=orthogonalEdgeStyle;rounded=0;orthogonalLoop=1;jettySize=auto;html=1;entryX=0.5;entryY=0;entryDx=0;entryDy=0;entryPerimeter=0;" edge="1" parent="0aKZVHoUoIrLt1A9KMXa-34" source="4sC6nosAnQVyJl_gHEht-26" target="4sC6nosAnQVyJl_gHEht-25">
          <mxGeometry relative="1" as="geometry" />
        </mxCell>
        <mxCell id="0aKZVHoUoIrLt1A9KMXa-29" style="edgeStyle=orthogonalEdgeStyle;rounded=0;orthogonalLoop=1;jettySize=auto;html=1;exitX=0.5;exitY=0;exitDx=0;exitDy=0;exitPerimeter=0;entryX=0.5;entryY=1.2;entryDx=0;entryDy=0;entryPerimeter=0;" edge="1" parent="0aKZVHoUoIrLt1A9KMXa-34" source="0aKZVHoUoIrLt1A9KMXa-20" target="4sC6nosAnQVyJl_gHEht-21">
          <mxGeometry relative="1" as="geometry" />
        </mxCell>
        <mxCell id="0aKZVHoUoIrLt1A9KMXa-30" value="Disable/Enable" style="edgeLabel;html=1;align=center;verticalAlign=middle;resizable=0;points=[];" vertex="1" connectable="0" parent="0aKZVHoUoIrLt1A9KMXa-29">
          <mxGeometry x="0.0667" y="-2" relative="1" as="geometry">
            <mxPoint as="offset" />
          </mxGeometry>
        </mxCell>
        <mxCell id="0aKZVHoUoIrLt1A9KMXa-31" style="edgeStyle=orthogonalEdgeStyle;rounded=0;orthogonalLoop=1;jettySize=auto;html=1;exitX=1;exitY=0.5;exitDx=0;exitDy=0;exitPerimeter=0;entryX=0.118;entryY=0.496;entryDx=0;entryDy=0;entryPerimeter=0;" edge="1" parent="0aKZVHoUoIrLt1A9KMXa-34" source="4sC6nosAnQVyJl_gHEht-25" target="4sC6nosAnQVyJl_gHEht-21">
          <mxGeometry relative="1" as="geometry" />
        </mxCell>
        <mxCell id="0aKZVHoUoIrLt1A9KMXa-33" value="Solution 3" style="points=[[0,0],[0.25,0],[0.5,0],[0.75,0],[1,0],[1,0.25],[1,0.5],[1,0.75],[1,1],[0.75,1],[0.5,1],[0.25,1],[0,1],[0,0.75],[0,0.5],[0,0.25]];outlineConnect=0;gradientColor=none;html=1;whiteSpace=wrap;fontSize=12;fontStyle=0;container=1;pointerEvents=0;collapsible=0;recursiveResize=0;shape=mxgraph.aws4.group;grIcon=mxgraph.aws4.group_aws_cloud_alt;strokeColor=#232F3E;fillColor=none;verticalAlign=top;align=left;spacingLeft=30;fontColor=#232F3E;dashed=0;" vertex="1" parent="1">
          <mxGeometry x="132.14" y="440" width="590" height="220" as="geometry" />
        </mxCell>
        <mxCell id="0aKZVHoUoIrLt1A9KMXa-9" value="" style="group" vertex="1" connectable="0" parent="0aKZVHoUoIrLt1A9KMXa-33">
          <mxGeometry x="62.860000000000014" y="30" width="464.28" height="130" as="geometry" />
        </mxCell>
        <mxCell id="0aKZVHoUoIrLt1A9KMXa-10" value="CPU Usage Alarm" style="sketch=0;outlineConnect=0;fontColor=#232F3E;gradientColor=none;fillColor=#E7157B;strokeColor=none;dashed=0;verticalLabelPosition=bottom;verticalAlign=top;align=center;html=1;fontSize=12;fontStyle=0;aspect=fixed;pointerEvents=1;shape=mxgraph.aws4.event_event_based;container=0;" vertex="1" parent="0aKZVHoUoIrLt1A9KMXa-9">
          <mxGeometry x="224.28" y="80" width="50" height="50" as="geometry" />
        </mxCell>
        <mxCell id="0aKZVHoUoIrLt1A9KMXa-11" value="SNS Topic" style="sketch=0;points=[[0,0,0],[0.25,0,0],[0.5,0,0],[0.75,0,0],[1,0,0],[0,1,0],[0.25,1,0],[0.5,1,0],[0.75,1,0],[1,1,0],[0,0.25,0],[0,0.5,0],[0,0.75,0],[1,0.25,0],[1,0.5,0],[1,0.75,0]];outlineConnect=0;fontColor=#232F3E;fillColor=#E7157B;strokeColor=#ffffff;dashed=0;verticalLabelPosition=bottom;verticalAlign=top;align=center;html=1;fontSize=12;fontStyle=0;aspect=fixed;shape=mxgraph.aws4.resourceIcon;resIcon=mxgraph.aws4.sns;container=0;" vertex="1" parent="0aKZVHoUoIrLt1A9KMXa-9">
          <mxGeometry x="414.28" y="80" width="50" height="50" as="geometry" />
        </mxCell>
        <mxCell id="0aKZVHoUoIrLt1A9KMXa-12" value="EC2 with script Installed" style="sketch=0;points=[[0,0,0],[0.25,0,0],[0.5,0,0],[0.75,0,0],[1,0,0],[0,1,0],[0.25,1,0],[0.5,1,0],[0.75,1,0],[1,1,0],[0,0.25,0],[0,0.5,0],[0,0.75,0],[1,0.25,0],[1,0.5,0],[1,0.75,0]];outlineConnect=0;fontColor=#232F3E;fillColor=#ED7100;strokeColor=#ffffff;dashed=0;verticalLabelPosition=bottom;verticalAlign=top;align=center;html=1;fontSize=12;fontStyle=0;aspect=fixed;shape=mxgraph.aws4.resourceIcon;resIcon=mxgraph.aws4.ec2;" vertex="1" parent="0aKZVHoUoIrLt1A9KMXa-9">
          <mxGeometry x="4.279999999999973" y="80" width="50" height="50" as="geometry" />
        </mxCell>
        <mxCell id="0aKZVHoUoIrLt1A9KMXa-13" value="IAM Role" style="sketch=0;outlineConnect=0;fontColor=#232F3E;gradientColor=none;fillColor=#DD344C;strokeColor=none;dashed=0;verticalLabelPosition=bottom;verticalAlign=top;align=center;html=1;fontSize=12;fontStyle=0;aspect=fixed;pointerEvents=1;shape=mxgraph.aws4.role;container=0;" vertex="1" parent="0aKZVHoUoIrLt1A9KMXa-9">
          <mxGeometry width="58.55" height="33.03" as="geometry" />
        </mxCell>
        <mxCell id="0aKZVHoUoIrLt1A9KMXa-14" style="edgeStyle=orthogonalEdgeStyle;rounded=0;orthogonalLoop=1;jettySize=auto;html=1;exitX=1;exitY=0.25;exitDx=0;exitDy=0;exitPerimeter=0;entryX=0.013;entryY=0.256;entryDx=0;entryDy=0;entryPerimeter=0;" edge="1" parent="0aKZVHoUoIrLt1A9KMXa-9" source="0aKZVHoUoIrLt1A9KMXa-12" target="0aKZVHoUoIrLt1A9KMXa-10">
          <mxGeometry relative="1" as="geometry" />
        </mxCell>
        <mxCell id="0aKZVHoUoIrLt1A9KMXa-15" value="metrics" style="edgeLabel;html=1;align=center;verticalAlign=middle;resizable=0;points=[];" vertex="1" connectable="0" parent="0aKZVHoUoIrLt1A9KMXa-14">
          <mxGeometry x="0.0604" y="1" relative="1" as="geometry">
            <mxPoint as="offset" />
          </mxGeometry>
        </mxCell>
        <mxCell id="0aKZVHoUoIrLt1A9KMXa-16" style="edgeStyle=orthogonalEdgeStyle;rounded=0;orthogonalLoop=1;jettySize=auto;html=1;exitX=1;exitY=0.75;exitDx=0;exitDy=0;exitPerimeter=0;entryX=-0.035;entryY=0.768;entryDx=0;entryDy=0;entryPerimeter=0;" edge="1" parent="0aKZVHoUoIrLt1A9KMXa-9" source="0aKZVHoUoIrLt1A9KMXa-12" target="0aKZVHoUoIrLt1A9KMXa-10">
          <mxGeometry relative="1" as="geometry" />
        </mxCell>
        <mxCell id="0aKZVHoUoIrLt1A9KMXa-17" value="SDK Disable/Enable" style="edgeLabel;html=1;align=center;verticalAlign=middle;resizable=0;points=[];" vertex="1" connectable="0" parent="0aKZVHoUoIrLt1A9KMXa-16">
          <mxGeometry x="-0.0122" y="1" relative="1" as="geometry">
            <mxPoint y="1" as="offset" />
          </mxGeometry>
        </mxCell>
        <mxCell id="0aKZVHoUoIrLt1A9KMXa-18" style="edgeStyle=orthogonalEdgeStyle;rounded=0;orthogonalLoop=1;jettySize=auto;html=1;entryX=0;entryY=0.5;entryDx=0;entryDy=0;entryPerimeter=0;" edge="1" parent="0aKZVHoUoIrLt1A9KMXa-9" source="0aKZVHoUoIrLt1A9KMXa-10" target="0aKZVHoUoIrLt1A9KMXa-11">
          <mxGeometry relative="1" as="geometry" />
        </mxCell>
        <mxCell id="0aKZVHoUoIrLt1A9KMXa-19" style="edgeStyle=orthogonalEdgeStyle;rounded=0;orthogonalLoop=1;jettySize=auto;html=1;entryX=0.5;entryY=0;entryDx=0;entryDy=0;entryPerimeter=0;" edge="1" parent="0aKZVHoUoIrLt1A9KMXa-9" source="0aKZVHoUoIrLt1A9KMXa-13" target="0aKZVHoUoIrLt1A9KMXa-12">
          <mxGeometry relative="1" as="geometry" />
        </mxCell>
      </root>
    </mxGraphModel>
  </diagram>
</mxfile>
